<svg version="1.2" baseProfile="tiny-ps" xmlns="http://www.w3.org/2000/svg" viewBox="0 0 32 32" width="32" height="32">
	<title>bnb_currency-svg</title>
	<style>
		tspan { white-space:pre }
		.shp0 { fill: #1571fa } 
		.shp1 { fill: #ffffff } 
	</style>
	<path id="Layer" class="shp0" d="M16 32C24.84 32 32 24.84 32 16C32 7.16 24.84 0 16 0C7.16 0 0 7.16 0 16C0 24.84 7.16 32 16 32Z" />
	<path id="Path_151" class="shp1" d="M21.62 12.5C21.52 12.44 21.41 12.4 21.3 12.37C21.19 12.34 21.08 12.33 20.96 12.33C20.85 12.33 20.73 12.34 20.62 12.37C20.51 12.4 20.4 12.44 20.3 12.5L17.28 14.25L15.23 15.39L12.22 17.14C12.12 17.2 12.01 17.24 11.9 17.27C11.79 17.3 11.67 17.31 11.56 17.31C11.44 17.31 11.33 17.3 11.22 17.27C11.11 17.24 11 17.2 10.9 17.14L8.5 15.77C8.41 15.72 8.32 15.65 8.24 15.57C8.15 15.49 8.09 15.4 8.03 15.31C7.97 15.21 7.93 15.11 7.89 15C7.86 14.89 7.85 14.78 7.84 14.67L7.84 11.97C7.84 11.85 7.86 11.74 7.89 11.63C7.92 11.52 7.96 11.42 8.02 11.32C8.07 11.22 8.15 11.14 8.23 11.06C8.31 10.98 8.4 10.91 8.5 10.86L10.86 9.53C10.96 9.47 11.07 9.43 11.18 9.4C11.29 9.37 11.4 9.36 11.52 9.36C11.63 9.36 11.75 9.37 11.86 9.4C11.97 9.43 12.08 9.47 12.18 9.53L14.54 10.86C14.63 10.92 14.72 10.98 14.8 11.06C14.89 11.14 14.95 11.23 15.01 11.33C15.07 11.42 15.11 11.53 15.14 11.64C15.18 11.74 15.19 11.85 15.2 11.97L15.2 13.72L17.25 12.54L17.25 10.79C17.25 10.67 17.23 10.56 17.2 10.45C17.18 10.34 17.13 10.24 17.07 10.14C17.01 10.04 16.94 9.96 16.86 9.88C16.78 9.8 16.69 9.73 16.59 9.68L12.22 7.17C12.12 7.12 12.01 7.07 11.9 7.04C11.79 7.01 11.67 7 11.56 7C11.44 7 11.33 7.01 11.22 7.04C11.11 7.07 11 7.12 10.9 7.17L6.45 9.68C6.35 9.73 6.26 9.8 6.18 9.88C6.09 9.96 6.02 10.04 5.97 10.14C5.91 10.24 5.86 10.34 5.83 10.45C5.81 10.56 5.79 10.67 5.79 10.79L5.79 15.85C5.79 15.96 5.81 16.07 5.83 16.18C5.86 16.29 5.91 16.39 5.97 16.49C6.02 16.59 6.09 16.68 6.18 16.75C6.26 16.83 6.35 16.9 6.45 16.95L10.9 19.46C11 19.52 11.11 19.56 11.22 19.59C11.33 19.62 11.44 19.63 11.56 19.63C11.67 19.63 11.79 19.62 11.9 19.59C12.01 19.56 12.12 19.52 12.22 19.46L15.23 17.75L17.28 16.57L20.3 14.86C20.4 14.8 20.51 14.76 20.62 14.73C20.73 14.7 20.85 14.69 20.96 14.69C21.07 14.69 21.19 14.7 21.3 14.73C21.41 14.76 21.52 14.8 21.62 14.86L23.98 16.19C24.08 16.25 24.17 16.31 24.25 16.39C24.33 16.47 24.39 16.56 24.45 16.66C24.51 16.75 24.56 16.85 24.58 16.96C24.62 17.07 24.63 17.18 24.64 17.29L24.64 20C24.64 20.11 24.62 20.22 24.6 20.33C24.57 20.44 24.52 20.54 24.46 20.64C24.4 20.74 24.33 20.83 24.25 20.9C24.17 20.98 24.08 21.05 23.98 21.1L21.62 22.47C21.52 22.52 21.41 22.57 21.3 22.6C21.19 22.63 21.07 22.64 20.96 22.64C20.85 22.64 20.73 22.63 20.62 22.6C20.51 22.57 20.4 22.52 20.3 22.47L17.94 21.14C17.85 21.08 17.76 21.01 17.68 20.94C17.6 20.86 17.53 20.77 17.47 20.67C17.41 20.58 17.37 20.47 17.34 20.36C17.31 20.26 17.29 20.15 17.28 20.03L17.28 18.28L15.23 19.46L15.23 21.21C15.23 21.33 15.25 21.44 15.28 21.55C15.31 21.66 15.35 21.76 15.41 21.86C15.46 21.95 15.54 22.04 15.62 22.12C15.7 22.2 15.79 22.26 15.89 22.32L20.34 24.83C20.44 24.88 20.55 24.93 20.66 24.96C20.77 24.98 20.88 25 21 25C21.11 25 21.23 24.98 21.34 24.96C21.45 24.93 21.56 24.88 21.66 24.83L26.11 22.32C26.2 22.26 26.29 22.19 26.37 22.11C26.45 22.04 26.52 21.95 26.58 21.85C26.64 21.76 26.68 21.65 26.71 21.54C26.75 21.44 26.76 21.33 26.76 21.21L26.76 16.15C26.77 16.04 26.75 15.93 26.72 15.82C26.69 15.71 26.65 15.6 26.59 15.51C26.53 15.41 26.46 15.32 26.38 15.24C26.3 15.17 26.21 15.1 26.11 15.05L21.62 12.5Z" />
</svg>